<svg xmlns="http://www.w3.org/2000/svg" width="1200" height="720" viewBox="0 0 1200 720">
  <defs>
    <linearGradient id="bg" x1="0" x2="1" y1="0" y2="1">
      <stop offset="0" stop-color="#0b0f13"/>
      <stop offset="1" stop-color="#151821"/>
    </linearGradient>
    <linearGradient id="accent" x1="0" x2="1">
      <stop offset="0" stop-color="#f9ff72"/>
      <stop offset="1" stop-color="#ff4f6a"/>
    </linearGradient>
  </defs>
  <rect width="1200" height="720" rx="36" fill="url(#bg)"/>
  <text x="64" y="98" fill="#a2a6b7" font-family="Inter, Arial" font-size="28" letter-spacing="6">MARKET VALUE</text>
  <text x="64" y="150" fill="#f7f7fb" font-family="Inter, Arial" font-size="56" font-weight="700">Capture price erosion</text>
  <text x="64" y="196" fill="#a2a6b7" font-family="Inter, Arial" font-size="26">As RES share grows, market value can fall faster than expected.</text>

  <g transform="translate(70,260)">
    <rect x="0" y="0" width="1060" height="380" rx="26" fill="#0f1520" stroke="rgba(255,255,255,0.10)" stroke-width="2"/>
    <path d="M80 300 C 260 220, 380 200, 520 150 C 680 95, 820 120, 980 70" stroke="rgba(255,255,255,0.16)" stroke-width="6" fill="none"/>
    <path d="M80 90 C 260 160, 380 190, 520 240 C 680 300, 820 320, 980 330" stroke="url(#accent)" stroke-width="8" fill="none" stroke-linecap="round"/>
    <text x="80" y="60" fill="#a2a6b7" font-family="Inter, Arial" font-size="22" letter-spacing="3">RES SHARE →</text>
    <text x="80" y="350" fill="#a2a6b7" font-family="Inter, Arial" font-size="22" letter-spacing="3">VALUE ↓</text>
    <rect x="80" y="310" width="900" height="12" rx="999" fill="rgba(255,255,255,0.06)"/>
    <rect x="80" y="310" width="520" height="12" rx="999" fill="url(#accent)" opacity="0.85"/>
  </g>

  <rect x="64" y="650" width="1072" height="10" rx="999" fill="url(#accent)" opacity="0.8"/>
</svg>